<svg contentscripttype="text/ecmascript" contentstyletype="text/css" enable-background="new 0 0 2048 2048" height="2048px" id="Layer_1" preserveAspectRatio="xMidYMid meet" version="1.1" viewBox="0.0 0 1664.0 2048" width="1664.0px" xml:space="preserve" xmlns="http://www.w3.org/2000/svg" xmlns:xlink="http://www.w3.org/1999/xlink" zoomAndPan="magnify"><path d="M848,1824c0-10.667-5.333-16-16-16c-39.333,0-73.167-14.167-101.5-42.5S688,1703.333,688,1664c0-10.667-5.333-16-16-16  s-16,5.333-16,16c0,48.667,17.167,90.167,51.5,124.5S783.333,1840,832,1840C842.667,1840,848,1834.667,848,1824z M1664,1536  c0,34.667-12.667,64.667-38,90s-55.333,38-90,38h-448c0,70.667-25,131-75,181s-110.333,75-181,75s-131-25-181-75s-75-110.333-75-181  H128c-34.667,0-64.667-12.667-90-38s-38-55.333-38-90c126.667-107.333,222.333-239.833,287-397.5s97-323.833,97-498.5  c0-110,32-197.333,96-262s152-103.667,264-117c-5.333-12-8-24.333-8-37c0-26.667,9.333-49.333,28-68s41.333-28,68-28  s49.333,9.333,68,28s28,41.333,28,68c0,12.667-2.667,25-8,37c112,13.333,200,52.333,264,117s96,152,96,262  c0,174.667,32.333,340.833,97,498.5S1537.333,1428.667,1664,1536z" fill="#9bafcc" opacity="1" original-fill="#000000"></path></svg>